<svg width="459" height="445" viewBox="0 0 459 445" fill="none" 
    xmlns="http://www.w3.org/2000/svg">
    <path fill-rule="evenodd" clip-rule="evenodd" d="M181.201 445C313.286 445 459 347.166 459 222.5C459 97.8339 313.286 0 181.201 0C49.117 0 0 142.669 0 244.918C0 347.166 49.117 445 181.201 445Z" fill="#FF73C6" fill-opacity="0.7"/>
    <g filter="url(#filter0_d)">
        <path fill-rule="evenodd" clip-rule="evenodd" d="M129.9 128.6C123.107 128.6 117.6 134.107 117.6 140.9V313.1C117.6 319.893 123.107 325.4 129.9 325.4H302.1C308.893 325.4 314.4 319.893 314.4 313.1V140.9C314.4 134.107 308.893 128.6 302.1 128.6H129.9ZM93 140.9C93 120.521 109.521 104 129.9 104H302.1C322.479 104 339 120.521 339 140.9V313.1C339 333.479 322.479 350 302.1 350H129.9C109.521 350 93 333.479 93 313.1V140.9Z" fill="white"/>
        <path fill-rule="evenodd" clip-rule="evenodd" d="M179 104.333C185.812 104.333 191.333 109.333 191.333 115.5V316.5C191.333 322.667 185.812 327.667 179 327.667C172.189 327.667 166.667 322.667 166.667 316.5V115.5C166.667 109.333 172.189 104.333 179 104.333Z" fill="white"/>
    </g>
    <defs>
        <filter id="filter0_d" x="64" y="82" width="304" height="276" filterUnits="userSpaceOnUse" color-interpolation-filters="sRGB">
            <feFlood flood-opacity="0" result="BackgroundImageFix"/>
            <feColorMatrix in="SourceAlpha" type="matrix" values="0 0 0 0 0 0 0 0 0 0 0 0 0 0 0 0 0 0 127 0"/>
            <feOffset dy="4"/>
            <feGaussianBlur stdDeviation="2"/>
            <feColorMatrix type="matrix" values="0 0 0 0 0 0 0 0 0 0 0 0 0 0 0 0 0 0 0.25 0"/>
            <feBlend mode="normal" in2="BackgroundImageFix" result="effect1_dropShadow"/>
            <feBlend mode="normal" in="SourceGraphic" in2="effect1_dropShadow" result="shape"/>
        </filter>
    </defs>
</svg>
