<svg width="534" height="492" viewBox="0 0 534 492" fill="none" 
    xmlns="http://www.w3.org/2000/svg">
    <rect x="70" width="396" height="346" rx="8" fill="#F2F2F2"/>
    <path d="M70 8C70 3.58172 73.5817 0 78 0H458C462.418 0 466 3.58172 466 8V27H70V8Z" fill="#C5CFD6"/>
    <path fill-rule="evenodd" clip-rule="evenodd" d="M83 18C85.2091 18 87 16.2091 87 14C87 11.7909 85.2091 10 83 10C80.7909 10 79 11.7909 79 14C79 16.2091 80.7909 18 83 18Z" fill="#F2F2F2"/>
    <path fill-rule="evenodd" clip-rule="evenodd" d="M95 18C97.2091 18 99 16.2091 99 14C99 11.7909 97.2091 10 95 10C92.7909 10 91 11.7909 91 14C91 16.2091 92.7909 18 95 18Z" fill="#F2F2F2"/>
    <path fill-rule="evenodd" clip-rule="evenodd" d="M107 18C109.209 18 111 16.2091 111 14C111 11.7909 109.209 10 107 10C104.791 10 103 11.7909 103 14C103 16.2091 104.791 18 107 18Z" fill="#F2F2F2"/>
    <rect x="380" y="132" width="70" height="194" rx="8" fill="white"/>
    <rect x="398" y="150" width="34" height="26" rx="4" fill="#DDE3E9"/>
    <rect x="398" y="184" width="34" height="25" rx="4" fill="#AFB9C5"/>
    <rect x="398" y="217" width="34" height="25" rx="4" fill="#DDE3E9"/>
    <rect x="398" y="283" width="34" height="25" rx="4" fill="#DDE3E9"/>
    <rect x="398" y="250" width="34" height="25" rx="4" fill="#C5CFD6"/>
    <rect x="380" y="43" width="70" height="81" rx="8" fill="white"/>
    <path fill-rule="evenodd" clip-rule="evenodd" d="M415 90C423.837 90 431 82.8366 431 74C431 65.1634 423.837 58 415 58C406.163 58 399 65.1634 399 74C399 82.8366 406.163 90 415 90Z" fill="#DDE3E9"/>
    <rect x="390" y="94" width="50" height="6" rx="3" fill="#DDE3E9"/>
    <rect x="398" y="104" width="34" height="6" rx="3" fill="#DDE3E9"/>
    <rect x="86" y="43" width="286" height="47" rx="4" fill="white"/>
    <rect x="95" y="57.1001" width="228" height="7.05" rx="3" fill="#DDE3E9"/>
    <rect x="95" y="68.8501" width="153.041" height="7.05" rx="3" fill="#DDE3E9"/>
    <path fill-rule="evenodd" clip-rule="evenodd" d="M341.436 73.5C345.302 73.5 348.436 70.366 348.436 66.5C348.436 62.634 345.302 59.5 341.436 59.5C337.57 59.5 334.436 62.634 334.436 66.5C334.436 70.366 337.57 73.5 341.436 73.5Z" fill="#DDE3E9"/>
    <path fill-rule="evenodd" clip-rule="evenodd" d="M341.436 69.5C343.092 69.5 344.436 68.1569 344.436 66.5C344.436 64.8431 343.092 63.5 341.436 63.5C339.779 63.5 338.436 64.8431 338.436 66.5C338.436 68.1569 339.779 69.5 341.436 69.5Z" fill="#F2F2F2"/>
    <rect x="86" y="98" width="286" height="39" rx="4" fill="white"/>
    <rect x="95" y="109.7" width="228" height="5.85" rx="2.925" fill="#DDE3E9"/>
    <rect x="95" y="119.45" width="153.041" height="5.85" rx="2.925" fill="#DDE3E9"/>
    <path fill-rule="evenodd" clip-rule="evenodd" d="M341.436 124.5C345.302 124.5 348.436 121.366 348.436 117.5C348.436 113.634 345.302 110.5 341.436 110.5C337.57 110.5 334.436 113.634 334.436 117.5C334.436 121.366 337.57 124.5 341.436 124.5Z" fill="#DDE3E9"/>
    <path fill-rule="evenodd" clip-rule="evenodd" d="M341.436 120.5C343.092 120.5 344.436 119.157 344.436 117.5C344.436 115.843 343.092 114.5 341.436 114.5C339.779 114.5 338.436 115.843 338.436 117.5C338.436 119.157 339.779 120.5 341.436 120.5Z" fill="#F2F2F2"/>
    <rect x="86" y="145" width="286" height="39" rx="4" fill="white"/>
    <rect x="95" y="156.7" width="228" height="5.85" rx="2.925" fill="#DDE3E9"/>
    <rect x="95" y="166.45" width="153.041" height="5.85" rx="2.925" fill="#DDE3E9"/>
    <path fill-rule="evenodd" clip-rule="evenodd" d="M341.436 171.5C345.302 171.5 348.436 168.366 348.436 164.5C348.436 160.634 345.302 157.5 341.436 157.5C337.57 157.5 334.436 160.634 334.436 164.5C334.436 168.366 337.57 171.5 341.436 171.5Z" fill="#DDE3E9"/>
    <path fill-rule="evenodd" clip-rule="evenodd" d="M341.436 167.5C343.092 167.5 344.436 166.157 344.436 164.5C344.436 162.843 343.092 161.5 341.436 161.5C339.779 161.5 338.436 162.843 338.436 164.5C338.436 166.157 339.779 167.5 341.436 167.5Z" fill="#AFB9C5"/>
    <rect x="86" y="286" width="286" height="39" rx="4" fill="white"/>
    <rect x="95" y="297.7" width="228" height="5.85" rx="2.925" fill="#DDE3E9"/>
    <rect x="95" y="307.45" width="153.041" height="5.85" rx="2.925" fill="#DDE3E9"/>
    <path fill-rule="evenodd" clip-rule="evenodd" d="M341.436 312.5C345.302 312.5 348.436 309.366 348.436 305.5C348.436 301.634 345.302 298.5 341.436 298.5C337.57 298.5 334.436 301.634 334.436 305.5C334.436 309.366 337.57 312.5 341.436 312.5Z" fill="#DDE3E9"/>
    <path fill-rule="evenodd" clip-rule="evenodd" d="M341.436 308.5C343.092 308.5 344.436 307.157 344.436 305.5C344.436 303.843 343.092 302.5 341.436 302.5C339.779 302.5 338.436 303.843 338.436 305.5C338.436 307.157 339.779 308.5 341.436 308.5Z" fill="#F2F2F2"/>
    <rect x="86" y="239" width="286" height="39" rx="4" fill="white"/>
    <rect x="95" y="250.7" width="228" height="5.85" rx="2.925" fill="#DDE3E9"/>
    <rect x="95" y="260.45" width="153.041" height="5.85" rx="2.925" fill="#DDE3E9"/>
    <path fill-rule="evenodd" clip-rule="evenodd" d="M341.436 265.5C345.302 265.5 348.436 262.366 348.436 258.5C348.436 254.634 345.302 251.5 341.436 251.5C337.57 251.5 334.436 254.634 334.436 258.5C334.436 262.366 337.57 265.5 341.436 265.5Z" fill="#DDE3E9"/>
    <path fill-rule="evenodd" clip-rule="evenodd" d="M341.436 261.5C343.092 261.5 344.436 260.157 344.436 258.5C344.436 256.843 343.092 255.5 341.436 255.5C339.779 255.5 338.436 256.843 338.436 258.5C338.436 260.157 339.779 261.5 341.436 261.5Z" fill="#F2F2F2"/>
    <rect x="86" y="192" width="286" height="39" rx="4" fill="white"/>
    <rect x="95" y="203.7" width="228" height="5.85" rx="2.925" fill="#DDE3E9"/>
    <rect x="95" y="213.45" width="153.041" height="5.85" rx="2.925" fill="#DDE3E9"/>
    <path fill-rule="evenodd" clip-rule="evenodd" d="M341.436 218.5C345.302 218.5 348.436 215.366 348.436 211.5C348.436 207.634 345.302 204.5 341.436 204.5C337.57 204.5 334.436 207.634 334.436 211.5C334.436 215.366 337.57 218.5 341.436 218.5Z" fill="#DDE3E9"/>
    <path fill-rule="evenodd" clip-rule="evenodd" d="M341.436 214.5C343.092 214.5 344.436 213.157 344.436 211.5C344.436 209.843 343.092 208.5 341.436 208.5C339.779 208.5 338.436 209.843 338.436 211.5C338.436 213.157 339.779 214.5 341.436 214.5Z" fill="#F2F2F2"/>
    <path fill-rule="evenodd" clip-rule="evenodd" d="M123.146 182.31C129.335 184.937 135.176 185.806 137.713 184.76C144.075 182.136 141.299 157.976 134.857 149.203C128.416 140.43 101.58 139.983 102.899 158.974C103.357 165.565 106.924 171.003 111.653 175.185L109.127 210.046L130.279 207.073L123.146 182.31Z" fill="#B28B67"/>
    <path fill-rule="evenodd" clip-rule="evenodd" d="M125.05 140.04C122.036 139.568 117.798 139.859 116.062 140.309C116.729 137.77 116.752 135.042 116.061 132.486C115.39 130.002 113.955 128.009 112.59 125.9C111.961 124.929 111.268 123.972 110.34 123.291C109.395 122.598 108.267 122.211 107.128 122.111C105.962 122.008 104.784 122.196 103.686 122.592C103.201 122.767 102.784 123.058 102.311 123.254C101.827 123.455 101.539 123.175 101.13 122.911C100.144 122.276 98.8029 122.082 97.672 122.104C96.4032 122.129 95.135 122.498 94.0025 123.075C92.9003 123.635 91.8785 124.438 91.1735 125.498C90.8596 125.969 90.5882 126.494 90.4423 127.052C90.3824 127.28 90.3855 127.411 90.1803 127.52C89.9905 127.622 89.7567 127.657 89.56 127.755C87.6578 128.71 86.1666 130.489 85.5145 132.595C85.1341 133.823 85.1623 135.888 85.5523 138.152C85.9422 140.416 88.8355 146.06 91.0659 147.954C93.0567 149.644 95.7631 150.563 98.2805 150.778C96.9209 152.851 96.1672 155.308 95.6999 157.764C95.1922 160.433 95.0284 163.154 95.2095 165.878C95.3816 168.466 95.745 171.178 96.6997 173.6C97.5927 175.865 99.0681 177.619 101.251 178.557C102.251 178.986 103.302 179.267 104.353 179.51C105.389 179.75 106.426 179.98 107.486 180.047C109.49 180.175 111.726 179.79 113.009 178.033C113.472 177.4 113.968 176.616 114.267 175.879C114.374 175.615 114.437 175.443 114.231 175.227C113.985 174.97 113.62 174.797 113.323 174.61C111.63 173.544 110.454 171.969 109.933 169.973C109.404 167.949 109.585 165.214 111.466 164.034C113.788 162.577 116.695 163.466 119.064 164.343C119.537 160.919 121.042 157.683 123.842 155.75C126.941 153.61 130.738 152.877 133.961 150.962C134.801 150.463 135.651 149.911 136.201 149.057C136.431 148.7 136.695 148.242 136.746 147.806C136.812 147.233 136.389 146.82 136.052 146.428C134.267 144.348 128.064 140.513 125.05 140.04Z" fill="#191847"/>
    <path fill-rule="evenodd" clip-rule="evenodd" d="M116.7 279.929L182.833 390.159L232.413 483.348H243.093L160.02 279.929L116.7 279.929Z" fill="#997659"/>
    <path fill-rule="evenodd" clip-rule="evenodd" d="M228.566 478.149C227.492 477.686 226.221 478.161 225.826 479.261C225.189 481.036 224.39 483.551 224.39 484.995C224.39 487.395 225.192 492 225.192 492C227.984 492 275.389 492 275.389 492C275.389 492 277.346 485.551 273.13 485.036C268.915 484.522 266.126 484.108 266.126 484.108L242.897 473.783C242.383 473.555 241.781 473.795 241.566 474.315L240.11 477.837C240.11 477.837 236.207 479.653 233.767 479.653C232.348 479.653 230.153 478.834 228.566 478.149Z" fill="#E4E4E4"/>
    <path fill-rule="evenodd" clip-rule="evenodd" d="M218.643 468.426L239.238 462.215C239.238 462.215 225.703 421.875 206.061 373.43C186.418 324.986 163.87 279.929 163.87 279.929H105.703C105.703 279.929 130.772 336.923 158.856 383.502C186.939 430.081 218.643 468.426 218.643 468.426Z" fill="#DB2721"/>
    <path fill-rule="evenodd" clip-rule="evenodd" d="M112.354 279.929C106.112 318.665 94.0733 368.154 92.9372 369.681C92.1798 370.699 64.913 379.808 11.1367 397.009L13.4436 406.398C77.5716 397.173 111.362 390.016 114.814 384.927C119.992 377.293 145.846 316.987 155.86 279.929H112.354Z" fill="#B28B67"/>
    <path fill-rule="evenodd" clip-rule="evenodd" d="M30.04 388.893L34.1033 404.014C82.0673 408.208 111.456 405.178 122.269 394.923C133.082 384.668 145.406 346.337 159.241 279.929H103.775C95.0101 334.308 90.1097 362.639 89.0743 364.921C88.0389 367.204 68.3608 375.195 30.04 388.893Z" fill="#FF4133"/>
    <path fill-rule="evenodd" clip-rule="evenodd" d="M15.1198 395.589C15.3918 394.449 14.6999 393.274 13.5435 393.078C11.6798 392.761 9.06006 392.413 7.63523 392.664C5.26441 393.081 0.855299 394.668 0.855299 394.668C1.34025 397.41 9.57202 443.954 9.57202 443.954C9.57202 443.954 16.2823 444.755 16.0582 440.527C15.8341 436.298 15.7592 433.489 15.7592 433.489L21.9224 408.894C22.0595 408.347 21.7169 407.795 21.1656 407.674L17.4356 406.856C17.4356 406.856 14.9646 403.339 14.541 400.944C14.2951 399.553 14.7199 397.265 15.1198 395.589Z" fill="#E4E4E4"/>
    <path fill-rule="evenodd" clip-rule="evenodd" d="M179.268 201.702L151.024 222.706L164.02 233.206L183.397 209.791C194.654 204.928 199.678 201.822 198.469 200.473C197.45 199.335 196.096 199.569 194.85 199.786C193.879 199.954 192.972 200.111 192.339 199.6C190.893 198.431 192.63 193.391 194.484 188.678C196.338 183.965 193.753 184.716 192.332 185.556C187.863 189.582 183.509 194.964 179.268 201.702ZM213.32 220.818L200.917 230.066L203.571 243.403C203.571 243.403 211.394 235.917 218.589 232.783C227.763 228.788 231.34 226.218 235.173 219.636C237.223 216.115 238.446 209.443 235.778 207.7C234.755 207.032 231.623 209.391 228.428 211.797C225.993 213.631 223.521 215.493 221.917 216.064C219.758 216.833 219.615 213.923 219.5 211.598C219.418 209.93 219.35 208.562 218.564 209.071C214.64 209.691 213.32 220.818 213.32 220.818Z" fill="#997659"/>
    <path fill-rule="evenodd" clip-rule="evenodd" d="M135.603 221.078C146.302 219.459 160.273 215.195 174.163 203.404L182.022 215.875C172.968 227.758 159.382 238.385 146.402 239.84C136.173 240.987 129.239 229.431 135.603 221.078Z" fill="#2026A2"/>
    <path fill-rule="evenodd" clip-rule="evenodd" d="M119.522 316.341C109.15 316.449 99.6189 316.548 94.2251 318.416C85.1696 299.14 88.5543 285.726 91.6788 273.343C93.562 265.88 95.3507 258.791 94.2643 251.02C91.1009 228.387 104.431 190.992 107.113 190.616L107.882 190.507L129.134 187.521L131.567 187.179C134.628 201.029 141.426 215.536 148.266 230.135C149.864 233.545 151.464 236.96 153.019 240.372C171.357 241.896 208.852 222.35 208.852 222.35C208.852 222.35 221.702 241.498 222.18 250.354C200.892 265.545 181.954 273.645 165.784 276.277C167.648 285.799 167.76 295.094 164.997 303.989C161.295 315.908 138.935 316.14 119.522 316.341Z" fill="#1F28CF"/>
    <path fill-rule="evenodd" clip-rule="evenodd" d="M384.415 182.073C379.117 186.213 373.701 188.564 370.979 188.21C364.154 187.322 360.583 163.267 364.534 153.126C368.485 142.985 394.292 135.607 397.933 154.292C399.196 160.777 397.158 166.953 393.672 172.216L405.135 205.236L383.934 207.839L384.415 182.073Z" fill="#B28B67"/>
    <path fill-rule="evenodd" clip-rule="evenodd" d="M375.272 140.678C378.01 139.878 385.495 138.641 386.883 138.47C387.769 138.362 388.755 138.446 389.181 137.569C389.529 136.852 389.233 135.747 389.267 134.96C389.306 134.046 389.409 133.135 389.515 132.227C389.816 129.641 390.444 127.14 391.458 124.739C393.36 120.235 396.499 116.504 400.737 114.038C405.418 111.314 410.948 110.142 416.315 109.919C422.058 109.681 427.435 110.92 433.021 112.022C438.343 113.072 443.783 113.075 449.034 111.598C454.324 110.111 458.04 106.697 462.248 103.374C466.556 99.971 471.649 97.4663 477.205 97.2161C482.391 96.9828 487.386 98.5163 491.981 100.82C496.28 102.975 499.95 105.753 502.351 110.001C504.934 114.571 505.581 119.857 502.828 124.514C498.838 131.265 490.22 133.942 482.867 134.684C478.615 135.113 474.354 134.853 470.177 133.94C464.607 132.723 459.602 130.116 454.29 128.154C451.797 127.233 449.251 126.538 446.623 126.135C444.073 125.744 441.606 125.723 439.556 127.482C437.388 129.343 435.461 131.145 432.881 132.46C430.406 133.722 427.726 134.586 424.962 134.904C419.586 135.522 414.086 134.504 408.732 134.027C404.366 133.638 399.702 133.288 395.472 134.697C393.708 135.285 391.157 136.364 390.733 138.32C401.979 138.957 407.966 151.991 406.087 162.331C405.073 167.911 395.782 175.43 391.522 173.084C388.824 171.598 390.04 169.064 390.824 167.393C392.324 164.193 392.493 160.298 388.788 158.653C385.593 157.235 382.983 161.856 382.923 161.858C382.097 161.894 374.539 158.776 368.954 153.558C364.184 154.432 363.067 151.363 363.897 148.638C364.727 145.914 371.489 141.784 375.272 140.678Z" fill="#191847"/>
    <path fill-rule="evenodd" clip-rule="evenodd" d="M430.187 279.93C428.582 301.766 325.2 366.057 324.597 367.86C324.195 369.063 356.776 443.888 356.776 443.888L347.739 447.389C347.739 447.389 297.765 368.144 300.332 359.7C304.007 347.611 380.544 280.162 380.544 280.162L430.187 279.93Z" fill="#B28B67"/>
    <path fill-rule="evenodd" clip-rule="evenodd" d="M354.398 432.622L339.643 437.977C308.531 402.979 296.336 374.102 298.56 359.389C300.783 344.676 378.496 279.983 378.496 279.983L431.245 279.983C429.445 330.554 333.623 368.053 332.342 370.208C331.06 372.363 343.673 393.469 354.398 432.622Z" fill="#2F3676"/>
    <path fill-rule="evenodd" clip-rule="evenodd" d="M357.271 442.24C358.121 441.438 359.48 441.451 360.229 442.35C361.436 443.801 363.05 445.891 363.545 447.248C364.368 449.503 365.194 454.104 365.194 454.104C362.57 455.056 318.024 471.221 318.024 471.221C318.024 471.221 313.973 465.828 317.758 463.907C321.543 461.986 324.021 460.646 324.021 460.646L342.307 443.023C342.712 442.633 343.36 442.654 343.74 443.069L346.317 445.882C346.317 445.882 350.607 446.257 352.9 445.425C354.234 444.941 356.014 443.424 357.271 442.24Z" fill="#E4E4E4"/>
    <path fill-rule="evenodd" clip-rule="evenodd" d="M418.3 279.93L464.354 390.159L509.618 483.349H498.939L382.101 279.93H418.3Z" fill="#997659"/>
    <path fill-rule="evenodd" clip-rule="evenodd" d="M507.574 478.149C508.647 477.686 509.919 478.161 510.314 479.262C510.951 481.037 511.75 483.552 511.75 484.996C511.75 487.396 510.948 492 510.948 492C508.155 492 460.75 492 460.75 492C460.75 492 458.794 485.551 463.009 485.037C467.225 484.523 470.013 484.108 470.013 484.108L493.243 473.784C493.757 473.555 494.358 473.795 494.573 474.315L496.03 477.838C496.03 477.838 499.932 479.653 502.372 479.653C503.792 479.653 505.987 478.834 507.574 478.149Z" fill="#E4E4E4"/>
    <path fill-rule="evenodd" clip-rule="evenodd" d="M505.53 463.99L481.801 468.426C463.454 441.533 386.669 331.263 378.25 279.93H431.077C459.191 317.038 488.041 436.652 505.53 463.99Z" fill="#5C63AB"/>
    <path fill-rule="evenodd" clip-rule="evenodd" d="M303.217 253.245L336.946 263.33L328.329 277.639L302.106 262.258C289.863 261.535 284.079 260.333 284.753 258.652C285.322 257.234 286.674 256.992 287.919 256.769C288.89 256.596 289.795 256.434 290.215 255.737C291.174 254.144 287.816 250.002 284.461 246.207C281.106 242.412 283.792 242.234 285.414 242.538C290.992 244.794 296.926 248.363 303.217 253.245ZM449.164 257.104L466.826 251.301C483.064 282.053 492.553 298.833 495.295 301.639C497.305 303.697 508.703 308.235 516.315 310.471C519.37 311.368 519.047 313.889 518.292 314.776C513.53 320.368 508.328 319.251 502.665 318.036C501.026 317.684 499.348 317.324 497.63 317.116C493.186 316.578 492.145 318.951 491.161 321.193C490.29 323.178 489.463 325.061 486.36 324.731C486.424 324.124 486.512 323.442 486.606 322.705C487.216 317.946 488.115 310.926 485.056 307.288C483.485 305.421 471.522 288.693 449.164 257.104Z" fill="#B28B67"/>
    <path fill-rule="evenodd" clip-rule="evenodd" d="M391.235 192.042L383.436 191.674C368.775 209.807 366.732 249.298 356.272 255.777C346.383 261.902 330.948 259.045 312.508 254.892L308.578 267.606C326.753 282.947 362.74 293.374 375.574 283.323C396.093 267.254 395.354 218.947 391.235 192.042Z" fill="#DB2721"/>
    <path fill-rule="evenodd" clip-rule="evenodd" d="M436.285 283.658C436.285 283.658 390.343 289.299 368.697 291.957C365.609 292.336 365.645 287.819 365.816 285.52C367.789 258.994 384.475 228.613 379.95 191.755L399.071 186.313C418.371 210.189 427.856 241.339 436.285 283.658Z" fill="#DDE3E9"/>
    <path fill-rule="evenodd" clip-rule="evenodd" d="M400.106 186.186L400.329 186.159C447.356 207.655 478.896 246.056 494.95 301.361L481.122 305.867C470.4 296.119 456.628 279.702 439.807 256.615C445.867 271.022 450.833 285.952 453.573 300.309L392.734 307.78C377.312 279.551 392.61 187.107 392.61 187.107L396.81 186.591L400.106 186.186Z" fill="#FF4133"/>
    <path fill-rule="evenodd" clip-rule="evenodd" d="M234.164 188.709C234.164 188.714 234.163 188.719 234.162 188.726C234.163 188.72 234.162 188.7 234.164 188.709" fill="#C5CFD6"/>
    <path fill-rule="evenodd" clip-rule="evenodd" d="M234.162 188.717C234.162 188.718 234.162 188.72 234.162 188.722C234.161 188.717 234.166 188.701 234.162 188.717" fill="#C5CFD6"/>
    <path fill-rule="evenodd" clip-rule="evenodd" d="M234.175 188.627C234.173 188.648 234.169 188.668 234.166 188.69C234.167 188.679 234.169 188.67 234.171 188.66C234.133 188.937 234.156 188.757 234.175 188.627" fill="#C5CFD6"/>
    <path fill-rule="evenodd" clip-rule="evenodd" d="M234.168 188.691C234.166 188.7 234.165 188.711 234.163 188.721C234.148 188.782 234.168 188.691 234.168 188.691" fill="#C5CFD6"/>
    <path fill-rule="evenodd" clip-rule="evenodd" d="M234.163 188.717C234.162 188.716 234.162 188.716 234.163 188.715C234.162 188.716 234.162 188.716 234.163 188.717" fill="#C5CFD6"/>
    <path fill-rule="evenodd" clip-rule="evenodd" d="M234.16 188.725C234.157 188.739 234.176 188.674 234.16 188.725Z" fill="#C5CFD6"/>
    <path fill-rule="evenodd" clip-rule="evenodd" d="M234.162 188.717L234.163 188.715C234.163 188.716 234.163 188.717 234.162 188.717" fill="#C5CFD6"/>
    <rect x="172.392" y="148.676" width="100" height="66" rx="4" transform="rotate(-14 172.392 148.676)" fill="#2B44FF"/>
    <path fill-rule="evenodd" clip-rule="evenodd" d="M213.727 158.234L197.113 210.815L253.081 196.861L213.727 158.234Z" fill="black" fill-opacity="0.2"/>
    <path fill-rule="evenodd" clip-rule="evenodd" d="M245.625 163.255L229.21 202.812L278.689 190.476L245.625 163.255Z" fill="black" fill-opacity="0.2"/>
    <path fill-rule="evenodd" clip-rule="evenodd" d="M256.323 161.063C261.414 159.793 264.512 154.637 263.243 149.547C261.973 144.456 256.817 141.358 251.727 142.627C246.636 143.896 243.538 149.052 244.807 154.143C246.076 159.234 251.232 162.332 256.323 161.063Z" fill="white"/>
</svg>
